<svg width="15" height="15" viewBox="0 0 15 15" fill="none" xmlns="http://www.w3.org/2000/svg">
<g clip-path="url(#clip0)">
<path d="M14.7684 1.4901C14.5852 1.26602 14.3107 1.14265 13.9956 1.14265C13.8243 1.14265 13.6428 1.1787 13.4562 1.25L0.758996 6.09692C0.0851676 6.35407 -0.00558406 6.73996 0.000252424 6.9471C0.0060889 7.15424 0.118584 7.53441 0.805916 7.75311C0.810036 7.75437 0.814156 7.75562 0.818276 7.75677L3.45202 8.51048L4.87635 12.5834C5.07056 13.1387 5.50646 13.4836 6.01412 13.4836C6.33421 13.4836 6.64904 13.3495 6.92461 13.0959L8.55368 11.5959L10.9165 13.4985C10.9168 13.4987 10.9171 13.4988 10.9173 13.4991L10.9398 13.5172C10.9418 13.5188 10.944 13.5205 10.9461 13.5221C11.2087 13.7258 11.4954 13.8334 11.7754 13.8335H11.7755C12.3227 13.8335 12.7584 13.4285 12.8853 12.8018L14.9657 2.52911C15.0492 2.11678 14.9792 1.74782 14.7684 1.4901ZM4.3331 8.36731L9.41439 5.77145L6.25044 9.13338C6.1986 9.18843 6.16187 9.25583 6.14378 9.32919L5.5337 11.8004L4.3331 8.36731ZM6.32918 12.4493C6.30812 12.4686 6.28695 12.4859 6.26578 12.5018L6.8318 10.2094L7.86143 11.0385L6.32918 12.4493ZM14.1043 2.35458L12.0239 12.6274C12.0038 12.7257 11.9399 12.9544 11.7754 12.9544C11.6942 12.9544 11.5921 12.9102 11.4876 12.8297L8.81014 10.6739C8.8098 10.6735 8.80934 10.6732 8.80888 10.673L7.21575 9.39007L11.7912 4.52828C11.9377 4.37264 11.951 4.13426 11.8227 3.96328C11.6943 3.79231 11.4616 3.73852 11.2713 3.83579L3.7459 7.68032L1.07634 6.91654L13.7697 2.07111C13.8769 2.03014 13.9517 2.02156 13.9956 2.02156C14.0225 2.02156 14.0703 2.02477 14.088 2.04662C14.1114 2.07512 14.1411 2.17228 14.1043 2.35458Z" fill="#F2F2F2"/>
</g>
<defs>
<clipPath id="clip0">
<rect width="15" height="15" fill="white"/>
</clipPath>
</defs>
</svg>
