<svg width="15" height="15" viewBox="0 0 15 15" fill="none" xmlns="http://www.w3.org/2000/svg">
<g clip-path="url(#clip0)">
<path d="M14.9853 4.41004C14.9501 3.61303 14.8213 3.0651 14.6366 2.5903C14.4462 2.08632 14.1531 1.63511 13.7692 1.26001C13.3941 0.879078 12.9399 0.583076 12.4418 0.395585C11.9643 0.210956 11.4192 0.0820702 10.6222 0.0469299C9.81921 0.00881367 9.5643 0 7.52777 0C5.49124 0 5.23633 0.00881367 4.43635 0.0439539C3.63934 0.0790941 3.0914 0.208094 2.61672 0.392609C2.11263 0.583076 1.66141 0.876102 1.28632 1.26001C0.905384 1.63511 0.609496 2.0893 0.421891 2.58744C0.237262 3.0651 0.108376 3.61006 0.0732361 4.40707C0.0351198 5.21003 0.0263062 5.46494 0.0263062 7.50147C0.0263062 9.538 0.0351198 9.79291 0.07026 10.5929C0.1054 11.3899 0.2344 11.9378 0.41903 12.4126C0.609496 12.9166 0.905384 13.3678 1.28632 13.7429C1.66141 14.1239 2.1156 14.4199 2.61375 14.6073C3.0914 14.792 3.63636 14.9209 4.43349 14.956C5.23335 14.9913 5.48838 15 7.52491 15C9.56144 15 9.81635 14.9913 10.6163 14.956C11.4133 14.9209 11.9613 14.792 12.436 14.6073C13.444 14.2176 14.241 13.4206 14.6308 12.4126C14.8153 11.935 14.9443 11.3899 14.9794 10.5929C15.0146 9.79291 15.0234 9.538 15.0234 7.50147C15.0234 5.46494 15.0204 5.21003 14.9853 4.41004ZM13.6345 10.5343C13.6022 11.2669 13.4792 11.6624 13.3766 11.9262C13.1246 12.5796 12.6059 13.0983 11.9525 13.3503C11.6887 13.4529 11.2903 13.5759 10.5606 13.6081C9.76942 13.6433 9.53214 13.652 7.53075 13.652C5.52936 13.652 5.2891 13.6433 4.50079 13.6081C3.76822 13.5759 3.37264 13.4529 3.10892 13.3503C2.78373 13.2301 2.48772 13.0397 2.24747 12.7906C1.99839 12.5474 1.80793 12.2543 1.68774 11.9291C1.58518 11.6654 1.46213 11.2669 1.42997 10.5373C1.39471 9.74609 1.38602 9.50869 1.38602 7.5073C1.38602 5.50591 1.39471 5.26565 1.42997 4.47746C1.46213 3.7449 1.58518 3.34931 1.68774 3.08559C1.80793 2.76028 1.99839 2.46439 2.25044 2.22402C2.49356 1.97495 2.78659 1.78448 3.11189 1.66441C3.37562 1.56185 3.77418 1.4388 4.50377 1.40652C5.29494 1.37138 5.53233 1.36257 7.53361 1.36257C9.53797 1.36257 9.77526 1.37138 10.5636 1.40652C11.2961 1.4388 11.6917 1.56185 11.9554 1.66441C12.2806 1.78448 12.5766 1.97495 12.8169 2.22402C13.066 2.46726 13.2564 2.76028 13.3766 3.08559C13.4792 3.34931 13.6022 3.74776 13.6345 4.47746C13.6696 5.26863 13.6785 5.50591 13.6785 7.5073C13.6785 9.50869 13.6696 9.74312 13.6345 10.5343Z" fill="#F2F2F2"/>
<path d="M7.52791 3.64809C5.40061 3.64809 3.67462 5.37396 3.67462 7.50138C3.67462 9.62879 5.40061 11.3547 7.52791 11.3547C9.65533 11.3547 11.3812 9.62879 11.3812 7.50138C11.3812 5.37396 9.65533 3.64809 7.52791 3.64809ZM7.52791 10.0009C6.14783 10.0009 5.02838 8.88158 5.02838 7.50138C5.02838 6.12118 6.14783 5.00184 7.52791 5.00184C8.90811 5.00184 10.0274 6.12118 10.0274 7.50138C10.0274 8.88158 8.90811 10.0009 7.52791 10.0009Z" fill="#F2F2F2"/>
<path d="M12.4331 3.49577C12.4331 3.99254 12.0303 4.39534 11.5334 4.39534C11.0366 4.39534 10.6339 3.99254 10.6339 3.49577C10.6339 2.99889 11.0366 2.59621 11.5334 2.59621C12.0303 2.59621 12.4331 2.99889 12.4331 3.49577V3.49577Z" fill="#F2F2F2"/>
</g>
<defs>
<clipPath id="clip0">
<rect width="15" height="15" fill="white"/>
</clipPath>
</defs>
</svg>
